<svg width="30" height="30" viewBox="0 0 30 30" fill="none" xmlns="http://www.w3.org/2000/svg">
<path d="M3.75 13.75V24.25C3.75 24.9501 3.75 25.2995 3.88624 25.5669C4.00608 25.8021 4.19717 25.9941 4.43237 26.1139C4.6995 26.25 5.04876 26.25 5.74746 26.25L19.2517 26.25C19.9504 26.25 20.301 26.25 20.5682 26.1139C20.8034 25.9941 20.9934 25.8026 21.1133 25.5674C21.2495 25.3 21.2495 24.9499 21.2495 24.2499L21.2514 18.7508M3.75 13.75H12.5M3.75 13.75L3.75 13.2501C3.75 12.5502 3.75 12.1997 3.88623 11.9324C4.00607 11.6972 4.19717 11.5061 4.43237 11.3862C4.69972 11.25 5.04969 11.25 5.74951 11.25L8.75 11.25M12.5 13.75H19.25C19.9501 13.75 20.3026 13.75 20.5699 13.8862C20.8052 14.0061 20.9934 14.1972 21.1133 14.4324C21.2495 14.6998 21.2495 15.0498 21.2495 15.7499L21.2514 18.7508M12.5 13.75L11.156 12.0221C10.9358 11.7389 10.8252 11.5968 10.6873 11.4948C10.565 11.4043 10.4288 11.3372 10.2824 11.2963C10.1172 11.25 9.936 11.25 9.57739 11.25L8.75 11.25M8.75 6.25H24.25C24.9501 6.25 25.3025 6.25 25.5699 6.38624C25.8051 6.50608 25.9934 6.69717 26.1133 6.93237C26.2495 7.19976 26.2495 7.5498 26.2495 8.24986V16.7499C26.2495 17.4499 26.2495 17.8 26.1133 18.0674C25.9934 18.3026 25.804 18.494 25.5688 18.6139C25.3017 18.75 24.9516 18.75 24.2529 18.75L21.2514 18.7508M8.75 6.25V11.25M8.75 6.25L8.75 5.75012C8.75 5.05018 8.75 4.69974 8.88623 4.43237C9.00607 4.19717 9.19717 4.00608 9.43237 3.88624C9.69976 3.75 10.0494 3.75 10.7495 3.75H14.5769C14.9359 3.75 15.1142 3.75 15.2795 3.79627C15.4259 3.83725 15.565 3.90434 15.6873 3.99475C15.8252 4.09678 15.9358 4.23893 16.156 4.52209L17.4999 6.24998" stroke="#C5998C" stroke-width="2" stroke-linecap="round" stroke-linejoin="round"/>
</svg>
