<svg width="230" height="43" viewBox="0 0 230 43" fill="none" xmlns="http://www.w3.org/2000/svg">
<path d="M3.98353 16.7611L4.08242 33.5222L6.95029 34.3529C9.91704 35.2814 12.5871 36.6007 14.7957 38.2622L16.1143 39.2395V22.4784V5.66847L14.0705 4.20249C11.4664 2.34558 8.00513 0.732992 5.69766 0.342062L3.9176 1.90735e-06L3.98353 16.7611Z" fill="white"/>
<path d="M24.6849 1.07506L22.5423 1.90578L22.3774 7.96518L22.2126 14.0735L21.4874 12.6563L20.7292 11.2392L20.004 12.6563L19.2459 14.0735L19.081 9.04024L18.9162 4.05589L17.8614 5.03321L16.7736 6.01054V22.283C16.7736 31.2743 16.8395 38.702 16.9713 38.8486C17.0702 38.9952 17.8943 38.5554 18.8503 37.9201C21.7841 35.77 26.2342 33.8642 28.1791 33.8642H28.9702V17.0054V0.146599L27.9154 0.195465C27.322 0.195465 25.8716 0.586395 24.6849 1.07506Z" fill="white"/>
<path d="M2.10454 4.20249C2.00565 4.49569 1.97268 12.0699 2.00565 20.9147L2.10454 37.0405L5.40094 37.3337C9.15883 37.7247 10.7741 38.2133 14.1034 39.9725L16.4439 41.243L18.9491 39.9725C22.2785 38.2622 25.8386 37.2849 28.6735 37.2849H30.948V20.3772C30.948 4.54455 30.915 3.51837 30.3876 3.66497C29.8272 3.81156 29.7943 4.98435 29.6954 19.2533L29.6295 34.695L27.8824 35.037C25.0145 35.6234 22.3444 36.7962 19.3777 38.8486L16.5098 40.8032L14.0375 38.9952C11.4993 37.1871 5.92836 34.8416 4.21423 34.8416H3.25828V19.2044C3.25828 5.47301 3.19235 3.56723 2.76382 3.56723C2.46714 3.56723 2.17047 3.86043 2.10454 4.20249Z" fill="white"/>
<path d="M46.2765 5.66848C46.1776 5.96167 46.1447 13.5359 46.1776 22.3807L46.2765 38.5065H53.199C60.9785 38.5065 62.1322 38.2622 63.6156 36.4541C65.0001 34.695 65.6264 32.3983 65.5934 28.8799C65.5934 25.7525 64.6704 22.6739 63.3848 21.4034C62.6596 20.7192 62.6596 20.6215 63.1541 19.1555C64.4067 15.4906 63.9452 10.3596 62.1322 7.67199C60.7148 5.57074 58.7369 5.03321 52.0123 5.03321C47.8258 5.03321 46.3754 5.17981 46.2765 5.66848ZM58.3084 12.3631C59.0995 13.5359 59.1984 16.1258 58.5062 17.5429C58.1106 18.3248 57.5502 18.4714 54.5505 18.618L51.0563 18.8135V15.0996V11.3858H54.3527C57.2206 11.3858 57.748 11.5324 58.3084 12.3631ZM60.0884 25.557C60.3851 25.9479 60.6818 27.023 60.8136 27.8537C60.9785 29.1242 60.8466 29.6618 60.1873 30.6391C59.3632 31.8607 59.1984 31.9096 55.1768 31.9096H51.0563V28.1958V24.4819L55.3416 24.6774C58.6051 24.7751 59.7258 25.0195 60.0884 25.557Z" fill="white"/>
<path d="M109.073 21.892V38.7997L111.314 38.6531L113.523 38.5065L113.622 35.0859C113.721 32.2028 113.852 31.4698 114.578 30.3459L115.435 29.0265L118.039 33.8642L120.676 38.7509H123.28C124.698 38.7509 125.884 38.6043 125.884 38.4577C125.884 38.3111 124.302 35.2814 122.39 31.763C120.445 28.1958 118.731 25.0683 118.566 24.7263C118.336 24.3353 119.16 22.6739 121.17 19.351C122.753 16.7122 124.368 14.0735 124.698 13.4382L125.324 12.3631L122.555 12.412H119.786L116.819 17.4941L113.852 22.5762L113.688 13.9269L113.523 5.27755L111.314 5.13095L109.073 4.98435V21.892Z" fill="white"/>
<path d="M127.862 21.892V38.7509H130.17H132.444L132.543 31.763L132.642 24.824L138.476 24.6774L144.311 24.5797L144.41 31.5187L144.509 38.5065L146.915 38.6531L149.289 38.7997V21.892V4.98435L146.915 5.13095L144.509 5.27755L144.41 12.0211L144.311 18.7157L138.476 18.618L132.642 18.4714L132.543 11.7279L132.444 5.03322H130.17H127.862V21.892Z" fill="white"/>
<path d="M0.0278733 24.4331L0.126765 41.4385L5.56582 41.4874C9.62039 41.4874 11.5982 41.7317 13.3124 42.3669C15.8176 43.2954 17.1691 43.2465 21.7182 41.9272C23.8608 41.2919 25.509 41.1942 28.7395 41.3896L32.9259 41.6828V24.5797C32.9259 9.72437 32.86 7.47652 32.4314 7.47652C32.0029 7.47652 31.937 9.5289 31.937 22.8694V38.2622H29.6625C26.5639 38.2622 22.2456 39.435 19.0481 41.1942C17.268 42.1715 16.1802 42.5135 15.8176 42.2204C13.4112 40.3146 7.0492 38.2622 3.52205 38.2622H1.2805V22.8694C1.2805 7.76972 1.2805 7.47652 0.621225 7.47652C-0.0380546 7.47652 -0.0380546 7.72086 0.0278733 24.4331Z" fill="white"/>
<path d="M73.0761 12.5097C70.8345 13.4871 69.0215 15.4417 67.9996 18.0316C66.7799 21.0613 66.4833 27.3162 67.3733 30.7368C68.7578 36.1121 71.7905 38.8486 76.4384 38.8975C81.1193 38.9952 83.9542 36.8451 85.5694 32.0562C86.3605 29.6129 86.4924 28.6844 86.4594 25.3127C86.4265 19.1555 84.9101 15.4417 81.6467 13.3405C79.504 11.9722 75.3835 11.5813 73.0761 12.5097ZM79.8996 19.6442C82.7675 22.0386 82.6686 29.222 79.7348 31.5187C77.3614 33.3756 73.5046 32.3494 72.0871 29.4174C70.8015 26.8764 71.4938 21.0124 73.2409 19.6442C75.1528 18.0805 78.0866 18.0805 79.8996 19.6442Z" fill="white"/>
<path d="M93.8432 12.5097C89.9864 14.1223 87.6789 18.8135 87.646 25.1172C87.613 33.8642 91.239 38.9463 97.5352 38.9463C104.062 38.9463 107.688 33.6199 107.358 24.5797C107.128 19.0089 105.381 15.0019 102.315 13.0961C100.568 11.9722 95.854 11.679 93.8432 12.5097ZM100.897 19.5953C102.776 21.2079 103.436 26.2411 102.15 29.3686C101.326 31.3721 99.7438 32.3983 97.5352 32.3983C93.9091 32.3983 92.1291 29.8572 92.3598 24.9217C92.4917 21.6477 93.5465 19.5953 95.5244 18.7646C97.0407 18.1293 99.7108 18.5203 100.897 19.5953Z" fill="white"/>
<path d="M155.947 12.8029C154.991 13.2916 153.739 14.3178 153.178 15.0996C150.278 19.1555 149.816 28.2935 152.222 34.0108C154.431 39.1418 161.617 40.8521 164.979 37.0405L166.1 35.77V37.236V38.7509H168.243H170.386V25.557V12.3631H168.243C166.166 12.3631 166.1 12.412 166.1 13.5848C166.1 15.0508 165.738 15.1485 164.979 13.878C163.727 11.8256 158.947 11.2392 155.947 12.8029ZM163.859 19.4976C165.078 20.4261 165.837 22.7716 165.837 25.6547C165.837 30.8345 162.969 33.3756 158.551 32.1051C154.134 30.7857 154.2 20.2795 158.617 18.7646C160.266 18.2271 162.606 18.5203 163.859 19.4976Z" fill="white"/>
<path d="M196.921 12.3631C191.977 14.2201 189.472 20.3772 190.461 28.2935C191.021 32.7892 192.241 35.2814 194.911 37.2849C196.987 38.8486 197.35 38.9463 199.987 38.8975C203.053 38.8486 204.998 38.0667 206.778 36.2587C208.129 34.8904 209.613 31.6653 209.613 30.1015C209.613 29.0265 209.481 28.9776 207.305 28.9776C205.426 28.9776 204.965 29.1242 204.701 29.9061C204.174 31.3232 202.262 32.3983 200.218 32.3983C197.317 32.3983 195.57 30.7857 195.043 27.6094L194.845 26.5343H202.426H210.041L209.876 23.358C209.58 17.885 207.536 14.2201 203.811 12.5586C202.163 11.8256 198.57 11.7279 196.921 12.3631ZM203.448 19.5465C205.525 21.3545 205.031 21.6477 200.02 21.6477H195.306L195.966 20.6215C197.614 18.2271 201.273 17.6895 203.448 19.5465Z" fill="white"/>
<path d="M218.414 12.5586C217.722 12.9495 216.865 13.6337 216.502 14.1223C215.909 14.9042 215.876 14.9042 215.876 13.6825C215.876 12.3631 215.843 12.3631 213.568 12.3631H211.261V25.557V38.7997L213.503 38.6531L215.711 38.5065L215.876 30.1015C216.041 21.8432 216.041 21.6477 216.898 20.3772C219.073 17.152 223.886 18.0805 224.974 21.892C225.304 23.1137 225.435 25.7036 225.435 31.1766V38.7997L227.677 38.6531L229.886 38.5065L229.985 31.4698C230.083 23.1626 229.721 19.6442 228.468 17.0054C226.985 13.878 224.875 12.2654 222.04 12.0211C220.524 11.9233 219.205 12.1188 218.414 12.5586Z" fill="white"/>
<path d="M171.375 12.6075C171.375 12.8518 175.429 32.8381 176.352 37.1383L176.715 38.7509H178.989C180.242 38.7509 181.264 38.5554 181.264 38.3599C181.264 38.1156 180.11 32.2517 178.66 25.2638L176.056 12.6075L173.715 12.4609C172.429 12.3631 171.375 12.4609 171.375 12.6075Z" fill="white"/>
<path d="M184.297 24.2376C182.978 30.7368 181.824 36.6007 181.692 37.1871C181.528 38.2133 181.594 38.2622 183.769 38.2622H186.044L188.615 25.6547C190.032 18.7646 191.186 12.9495 191.153 12.7052C191.153 12.5097 190.164 12.3631 188.944 12.3631H186.703L184.297 24.2376Z" fill="white"/>
</svg>
